<?xml version="1.0" encoding="UTF-8"?>
<svg version="1.1" xmlns="http://www.w3.org/2000/svg" width="1024" height="1024">
<path d="M0 0 C6.85121247 4.86862718 9.94244282 10.65779578 11.8203125 18.765625 C14.77517535 40.96227334 0.90405236 62.80445052 -11.68310547 79.73779297 C-28.49980469 102.52400891 -42.95857429 127.03423796 -54.2421875 153.015625 C-54.77924316 154.24635742 -54.77924316 154.24635742 -55.32714844 155.50195312 C-57.83596557 161.45827693 -59.60756408 167.5008503 -61.1796875 173.765625 C-60.85806641 173.17249512 -60.53644531 172.57936523 -60.20507812 171.96826172 C-56.54584796 165.22530799 -52.86859495 158.49238557 -49.1796875 151.765625 C-48.80215332 151.0746875 -48.42461914 150.38375 -48.03564453 149.671875 C-36.09584788 127.90456956 -21.77271687 107.74422991 -5.83984375 88.75488281 C-4.30286029 86.91321498 -2.78419615 85.05851137 -1.2734375 83.1953125 C-0.61021484 82.38247803 -0.61021484 82.38247803 0.06640625 81.55322266 C1.22618685 80.13104621 2.38276731 78.70626168 3.5390625 77.28125 C6.11768219 74.43770363 8.83511599 72.17658862 11.8203125 69.765625 C14.17488756 67.47468711 16.46755342 65.13197926 18.74609375 62.765625 C24.42842533 56.95208505 30.41406272 51.76601448 36.8203125 46.765625 C37.41231445 46.3025293 38.00431641 45.83943359 38.61425781 45.36230469 C86.30031024 8.25682476 86.30031024 8.25682476 109.8203125 10.765625 C114.51613061 12.35742775 118.25355732 14.30077711 121.8203125 17.765625 C123.1328125 20.515625 123.1328125 20.515625 123.8203125 22.765625 C124.8103125 22.765625 125.8003125 22.765625 126.8203125 22.765625 C126.65144531 23.25675781 126.48257812 23.74789062 126.30859375 24.25390625 C125.75618298 27.09550726 125.83844991 29.76965359 125.93701172 32.65307617 C126.6132144 54.62033635 117.88671681 73.70619282 107.8203125 92.765625 C107.32023682 93.71791992 107.32023682 93.71791992 106.81005859 94.68945312 C94.01374551 118.83344008 77.38991919 140.91168167 59.8203125 161.765625 C59.01722656 162.75304687 58.21414063 163.74046875 57.38671875 164.7578125 C50.87709051 172.66236107 43.80586869 179.96847109 36.5703125 187.203125 C36.09872711 187.67561676 35.62714172 188.14810852 35.14126587 188.63491821 C29.54491598 194.23005142 23.87061699 199.66339454 17.8203125 204.765625 C17.23733398 205.26070557 16.65435547 205.75578613 16.05371094 206.26586914 C6.82854951 214.01890269 -2.82490444 220.6153465 -13.1796875 226.765625 C-11.79973966 243.14530637 -4.39608805 259.70799441 6.8203125 271.765625 C6.8203125 272.425625 6.8203125 273.085625 6.8203125 273.765625 C7.5628125 273.848125 8.3053125 273.930625 9.0703125 274.015625 C11.8203125 274.765625 11.8203125 274.765625 13.61328125 276.671875 C19.86389815 282.60166377 30.19390269 283.10674782 38.45703125 283.0859375 C39.27298767 283.08411469 40.08894409 283.08229187 40.92962646 283.08041382 C50.96250245 282.91188088 60.71617058 281.14911409 70.5703125 279.390625 C74.2517626 278.75289349 77.93452738 278.12288873 81.6171875 277.4921875 C82.50031616 277.33969543 83.38344482 277.18720337 84.29333496 277.03009033 C91.78118477 275.74600315 99.27368438 274.65283242 106.8203125 273.765625 C107.74932373 273.65516846 108.67833496 273.54471191 109.63549805 273.4309082 C117.53745957 272.60015743 125.44409493 272.56870433 133.3828125 272.578125 C134.0873053 272.57773224 134.7917981 272.57733948 135.51763916 272.57693481 C146.41510137 272.58420206 157.03017621 273.23279803 167.8203125 274.765625 C169.56964623 274.89962689 171.31960481 275.02596204 173.0703125 275.140625 C178.86588386 275.71327089 184.32699375 277.4792156 189.87695312 279.17871094 C191.87862935 279.78323728 193.88668091 280.35965808 195.8984375 280.9296875 C200.22118148 282.15894427 204.52521553 283.44308781 208.8203125 284.765625 C209.51527832 284.97912598 210.21024414 285.19262695 210.92626953 285.41259766 C231.96779937 292.00932172 250.83059577 303.37829915 268.19921875 316.8203125 C270.73771152 318.78474731 270.73771152 318.78474731 273.34765625 320.2109375 C276.28937581 322.06054948 278.38782932 324.28438881 280.8203125 326.765625 C282.4078514 328.3317463 283.99641764 329.8968268 285.5859375 331.4609375 C287.41420759 333.27068677 289.24232811 335.08058716 291.0703125 336.890625 C291.97394531 337.7775 292.87757813 338.664375 293.80859375 339.578125 C302.3727503 348.08066891 309.95892896 357.19901297 316.8828125 367.078125 C317.39102539 367.80249756 317.89923828 368.52687012 318.42285156 369.27319336 C322.99865539 375.88115832 327.04732631 382.66260278 330.8203125 389.765625 C331.1498291 390.37696289 331.4793457 390.98830078 331.81884766 391.61816406 C351.71237969 428.74134054 358.25136069 470.03377464 357.8203125 511.765625 C358.25432373 511.3106665 358.68833496 510.85570801 359.13549805 510.38696289 C367.91119131 501.26513178 377.6782863 494.60512066 388.8203125 488.765625 C389.53960938 488.38019531 390.25890625 487.99476563 391 487.59765625 C397.69370727 484.53808619 406.2701194 484.55608 413.2890625 486.421875 C419.3065367 489.10659426 423.29586997 493.42087773 426.0078125 499.37109375 C430.96646625 513.46315018 432.59313299 529.53178802 427.8203125 543.765625 C427.40843794 545.16187299 426.99979967 546.55907819 426.59375 547.95703125 C419.93341301 570.11892428 407.68858312 587.19078946 391.8203125 603.765625 C390.86318359 604.78462891 390.86318359 604.78462891 389.88671875 605.82421875 C367.58653356 628.98004653 339.25414734 639.80897717 307.8203125 642.765625 C306.82864933 667.86021251 312.77908308 688.8414175 329.8203125 707.765625 C335.10025352 713.36855683 340.59339578 718.77329835 346.23828125 724.0078125 C347.8203125 725.765625 347.8203125 725.765625 347.7578125 728.328125 C346.77976682 730.87104376 345.97737962 732.12625399 343.8203125 733.765625 C343.1603125 733.765625 342.5003125 733.765625 341.8203125 733.765625 C341.4903125 734.425625 341.1603125 735.085625 340.8203125 735.765625 C339.8715625 735.745 338.9228125 735.724375 337.9453125 735.703125 C334.91364967 735.54010674 334.91364967 735.54010674 332.8203125 736.765625 C332.4903125 736.105625 332.1603125 735.445625 331.8203125 734.765625 C329.64232967 734.25606209 329.64232967 734.25606209 327.0078125 733.953125 C320.43792609 732.85532907 314.87014114 730.47835955 308.8203125 727.765625 C307.54683863 727.22875856 306.27203355 726.69504169 304.99609375 726.1640625 C286.38240913 718.35496406 269.47021546 707.66243744 254.0546875 694.640625 C251.85796509 692.74496344 251.85796509 692.74496344 249.5234375 691.140625 C248.96140625 690.686875 248.399375 690.233125 247.8203125 689.765625 C247.8203125 689.105625 247.8203125 688.445625 247.8203125 687.765625 C247.2840625 687.53875 246.7478125 687.311875 246.1953125 687.078125 C244.07006029 685.90364351 242.51784449 684.71747253 240.6953125 683.140625 C238.18484333 680.55333118 238.18484333 680.55333118 235.8203125 680.765625 C235.8203125 679.775625 235.8203125 678.785625 235.8203125 677.765625 C229.90927717 674.2190038 222.83050729 674.61756632 216.14933777 674.62086487 C215.30103356 674.61733802 214.45272936 674.61381118 213.57871896 674.61017746 C210.74933239 674.59954246 207.91997956 674.59581857 205.09057617 674.59204102 C203.05653238 674.58573172 201.02248997 674.5789655 198.9884491 674.57177734 C194.61400324 674.55713348 190.23956263 674.54539819 185.86510277 674.53582954 C178.9433532 674.5203468 172.02164891 674.4963977 165.09992981 674.47093201 C145.41910669 674.39980966 125.73825789 674.33996476 106.05737305 674.28881836 C95.18333765 674.26048433 84.30934759 674.22508837 73.43535978 674.18216461 C66.55965675 674.15544764 59.68400497 674.13750853 52.80826032 674.12612736 C48.52375263 674.11697756 44.23930705 674.09960468 39.95483589 674.07994843 C37.97398229 674.07249879 35.99311274 674.06839343 34.01224518 674.06795311 C9.94801837 674.05828776 9.94801837 674.05828776 4.34765625 669.953125 C0.301194 664.38551109 -2.02710034 659.75428858 -1.1796875 652.765625 C3.06651206 636.99128185 12.27807825 626.45875193 25.8203125 617.765625 C34.1351067 613.17122877 42.73291244 611.67015834 52.01171875 610.34375 C55.73229993 609.88955808 55.73229993 609.88955808 58.8203125 608.765625 C60.84189095 608.7181675 62.86492408 608.7285039 64.88671875 608.765625 C76.52008108 608.88103009 88.13785372 608.25662078 99.7578125 607.765625 C102.09829571 607.66898988 104.43879045 607.57263355 106.77929688 607.4765625 C112.45977226 607.24279576 118.14009592 607.00559408 123.8203125 606.765625 C123.27217896 606.35624695 122.72404541 605.9468689 122.15930176 605.52508545 C121.07981262 604.71747772 121.07981262 604.71747772 119.97851562 603.89355469 C119.26538208 603.36042664 118.55224854 602.82729858 117.81750488 602.27801514 C115.58939224 600.59075876 113.43403062 598.84415893 111.3203125 597.015625 C110.65 596.44328125 109.9796875 595.8709375 109.2890625 595.28125 C107.8203125 593.765625 107.8203125 593.765625 107.8203125 591.765625 C107.1603125 591.765625 106.5003125 591.765625 105.8203125 591.765625 C103.04342926 588.78326414 100.57439779 585.55041694 98.0625 582.34326172 C96.89327671 580.85829299 95.70124485 579.39136456 94.5078125 577.92578125 C86.74150762 568.09655164 81.37202231 557.0476752 76.70703125 545.46484375 C75.68803074 543.51213353 74.4413098 542.24132283 72.8203125 540.765625 C73.4803125 540.435625 74.1403125 540.105625 74.8203125 539.765625 C74.60375 539.11722656 74.3871875 538.46882812 74.1640625 537.80078125 C67.01907009 512.62791447 72.56611988 487.51575354 84.55957031 465.01367188 C87.23079775 460.2505692 90.34979532 455.98385523 93.8203125 451.765625 C94.45453125 450.93289063 95.08875 450.10015625 95.7421875 449.2421875 C108.56684308 432.57013525 124.45743459 421.53824728 142.8203125 411.765625 C139.70277051 411.765625 137.43255982 412.347872 134.4453125 413.203125 C131.63402578 414.00469022 128.91480489 414.74961158 126.03125 415.23828125 C125.30164063 415.41230469 124.57203125 415.58632813 123.8203125 415.765625 C123.4903125 416.425625 123.1603125 417.085625 122.8203125 417.765625 C120.78001621 418.79025403 118.71176958 419.75940308 116.6328125 420.703125 C92.06911496 432.47039328 73.61720384 455.53461056 64.28515625 480.796875 C54.02111573 509.99461759 56.50487567 541.82975144 69.52075195 569.85083008 C72.85876336 576.74894666 76.75330595 582.81009944 81.6706543 588.69384766 C84.8203125 592.48729031 84.8203125 592.48729031 84.8203125 595.765625 C64.37881415 597.89494774 44.1476862 595.7979026 23.86376953 593.13793945 C22.83168365 593.00378128 22.83168365 593.00378128 21.77874756 592.86691284 C19.90189317 592.62125923 18.02586497 592.36931671 16.14990234 592.11694336 C12.81932972 591.70498729 12.81932972 591.70498729 9.44775391 591.77563477 C6.8203125 591.765625 6.8203125 591.765625 5.8203125 590.765625 C4.5003125 591.425625 3.1803125 592.085625 1.8203125 592.765625 C1.294375 591.775625 1.294375 591.775625 0.7578125 590.765625 C-1.14525892 588.35458539 -1.14525892 588.35458539 -4.8671875 588.515625 C-6.506875 588.639375 -6.506875 588.639375 -8.1796875 588.765625 C-8.5096875 587.775625 -8.8396875 586.785625 -9.1796875 585.765625 C-14.10154996 589.50973012 -17.40873679 593.479075 -20.8671875 598.578125 C-21.38337646 599.32368652 -21.89956543 600.06924805 -22.43139648 600.83740234 C-24.02322622 603.14073358 -25.60289881 605.45197748 -27.1796875 607.765625 C-29.0325915 610.47482371 -30.88699516 613.18299283 -32.7421875 615.890625 C-33.19094238 616.54627441 -33.63969727 617.20192383 -34.10205078 617.87744141 C-41.41837579 628.5272555 -49.17335677 638.84674037 -57.0859375 649.05859375 C-58.37203091 650.72139736 -59.62949024 652.4074426 -60.8359375 654.12890625 C-61.279375 654.66902344 -61.7228125 655.20914063 -62.1796875 655.765625 C-62.8396875 655.765625 -63.4996875 655.765625 -64.1796875 655.765625 C-64.44450928 656.37011475 -64.70933105 656.97460449 -64.98217773 657.59741211 C-66.92928696 661.12285085 -70.02278943 663.00374306 -73.2421875 665.328125 C-73.91813965 665.81974121 -74.5940918 666.31135742 -75.29052734 666.81787109 C-80.11804451 670.23211846 -84.36232174 672.45202628 -90.1796875 673.765625 C-91.29662491 674.03002129 -91.29662491 674.03002129 -92.43612671 674.29975891 C-95.93797322 674.89438453 -99.40923228 675.00420092 -102.95166016 675.09448242 C-104.10132515 675.12878105 -104.10132515 675.12878105 -105.2742157 675.16377258 C-107.7972852 675.23758927 -110.32047219 675.30480447 -112.84375 675.37109375 C-114.60061869 675.41921466 -116.35748512 675.46741837 -118.11434937 675.51570129 C-121.79099923 675.61548725 -125.46772688 675.71151022 -129.14453125 675.80541992 C-133.86047243 675.92656617 -138.5759198 676.06131645 -143.29139137 676.19939709 C-146.91654408 676.30333559 -150.54189633 676.39795328 -154.16736984 676.48995399 C-155.90662191 676.53562626 -157.6457877 676.58471481 -159.38484573 676.63725853 C-161.81192936 676.70961763 -164.23899601 676.76892375 -166.66650391 676.82495117 C-167.74660484 676.86143265 -167.74660484 676.86143265 -168.848526 676.89865112 C-172.55725666 676.96947077 -173.99870985 676.88627677 -177.1796875 674.765625 C-177.9634375 674.32605469 -178.7471875 673.88648438 -179.5546875 673.43359375 C-180.4209375 672.94503906 -181.2871875 672.45648437 -182.1796875 671.953125 C-183.4790625 671.23189453 -183.4790625 671.23189453 -184.8046875 670.49609375 C-188.51309633 667.79407876 -189.89426722 664.90730613 -190.9921875 660.515625 C-191.51279403 650.10349444 -186.75120973 641.9698431 -180.9921875 633.578125 C-168.0347361 620.6206736 -152.94927475 616.43859363 -135.85546875 611.87890625 C-126.34642441 608.94794558 -121.68155881 602.88239678 -117.13476562 594.33325195 C-110.99968712 582.24414452 -106.19283826 569.51445029 -102.1796875 556.578125 C-101.95966064 555.89564697 -101.73963379 555.21316895 -101.51293945 554.51000977 C-100.16244091 549.93730875 -100.02836493 546.39382715 -101.1796875 541.765625 C-103.63601823 539.44954626 -103.63601823 539.44954626 -106.1796875 537.765625 C-106.1796875 537.105625 -106.1796875 536.445625 -106.1796875 535.765625 C-106.8396875 535.765625 -107.4996875 535.765625 -108.1796875 535.765625 C-109.6171875 534.3046875 -109.6171875 534.3046875 -111.1796875 532.390625 C-112.79832786 530.42397696 -114.37642946 528.56888304 -116.1796875 526.765625 C-118.24949013 524.15113747 -120.20907135 521.45531125 -122.1796875 518.765625 C-122.70691406 518.05535156 -123.23414063 517.34507812 -123.77734375 516.61328125 C-143.51136209 489.32155376 -155.83306383 456.52187126 -156.80200195 422.67626953 C-156.8613301 421.03562611 -157.0116995 419.3987235 -157.1796875 417.765625 C-157.8396875 417.435625 -158.4996875 417.105625 -159.1796875 416.765625 C-159.1796875 414.785625 -159.1796875 412.805625 -159.1796875 410.765625 C-158.5196875 410.765625 -157.8596875 410.765625 -157.1796875 410.765625 C-157.1796875 410.105625 -157.1796875 409.445625 -157.1796875 408.765625 C-158.65501953 408.63607422 -158.65501953 408.63607422 -160.16015625 408.50390625 C-177.5493334 406.81134266 -194.23776017 402.99082414 -210.1796875 395.765625 C-211.06527344 395.37761719 -211.95085937 394.98960937 -212.86328125 394.58984375 C-228.1176255 387.48742107 -240.89430496 376.73609782 -250.1796875 362.765625 C-250.9015625 361.693125 -251.6234375 360.620625 -252.3671875 359.515625 C-260.82581722 343.31905598 -262.01394076 324.78167697 -256.57421875 307.34765625 C-253.93052262 300.55698579 -250.68938751 294.14475329 -247.1796875 287.765625 C-246.58800781 286.68023437 -245.99632812 285.59484375 -245.38671875 284.4765625 C-241.46527168 277.53102468 -237.00206631 271.11187552 -232.1796875 264.765625 C-231.63828125 264.04117187 -231.096875 263.31671875 -230.5390625 262.5703125 C-211.54729188 237.58599289 -187.08839247 212.01714702 -158.1796875 198.765625 C-157.5196875 198.765625 -156.8596875 198.765625 -156.1796875 198.765625 C-155.8496875 198.105625 -155.5196875 197.445625 -155.1796875 196.765625 C-152.62634732 195.65534905 -150.1041201 194.65397026 -147.4921875 193.703125 C-146.78384766 193.43435547 -146.07550781 193.16558594 -145.34570312 192.88867188 C-142.09644167 191.68557507 -139.15983776 190.76241764 -135.72265625 190.20703125 C-134.46388672 189.98853516 -134.46388672 189.98853516 -133.1796875 189.765625 C-132.8496875 189.105625 -132.5196875 188.445625 -132.1796875 187.765625 C-129.45703125 187.1328125 -129.45703125 187.1328125 -126.1171875 186.640625 C-125.01246094 186.47304688 -123.90773438 186.30546875 -122.76953125 186.1328125 C-121.91488281 186.01164063 -121.06023437 185.89046875 -120.1796875 185.765625 C-120.15390625 184.8890625 -120.128125 184.0125 -120.1015625 183.109375 C-117.84936088 132.74195698 -98.52085031 81.48009872 -66.1796875 42.765625 C-64.82403307 41.03762448 -63.4698857 39.30844067 -62.1171875 37.578125 C-58.72707662 33.33716276 -55.1005105 29.51304551 -51.1796875 25.765625 C-50.3134375 24.899375 -49.4471875 24.033125 -48.5546875 23.140625 C-47.7709375 22.356875 -46.9871875 21.573125 -46.1796875 20.765625 C-44.849375 19.3734375 -44.849375 19.3734375 -43.4921875 17.953125 C-41.1796875 15.765625 -41.1796875 15.765625 -39.1796875 15.765625 C-39.1796875 15.105625 -39.1796875 14.445625 -39.1796875 13.765625 C-37.23111143 12.23266484 -35.29609107 10.83210986 -33.2421875 9.453125 C-32.64970215 9.05085693 -32.0572168 8.64858887 -31.44677734 8.23413086 C-10.41198594 -5.89639347 -10.41198594 -5.89639347 0 0 Z M-63.1796875 176.765625 C-62.1796875 179.765625 -62.1796875 179.765625 -62.1796875 179.765625 Z M-159.9921875 271.703125 C-163.89895939 277.17260564 -164.56973424 280.65641283 -163.71484375 287.26953125 C-162.30811714 293.83083275 -158.56197234 297.99802561 -153.1796875 301.765625 C-147.44356097 304.32857515 -142.50055245 304.56592326 -136.5546875 302.515625 C-130.11586506 299.17697633 -126.46712113 295.67685495 -124.1796875 288.765625 C-123.20347689 283.1154363 -124.10457501 278.53137224 -126.91015625 273.5546875 C-130.05777884 269.11896089 -134.03824279 266.49716029 -139.1796875 264.765625 C-147.92451836 263.65639867 -154.00510517 264.98718047 -159.9921875 271.703125 Z " fill="#171818" transform="translate(415.1796875,119.234375)"/>
<path d="M0 0 C1.90848362 0.43555111 1.90848362 0.43555111 3.9765625 0.59765625 C4.729375 0.67693359 5.4821875 0.75621094 6.2578125 0.83789062 C7.42957031 0.94907227 7.42957031 0.94907227 8.625 1.0625 C16.87839982 1.87839982 16.87839982 1.87839982 18 3 C18.15980437 5.44608998 18.25929447 7.86731058 18.31640625 10.31640625 C18.33718735 11.04746078 18.35796844 11.77851532 18.37937927 12.53172302 C18.44495024 14.87521656 18.50379432 17.21882539 18.5625 19.5625 C18.60567808 21.14779855 18.64929213 22.73308529 18.69335938 24.31835938 C18.8006392 28.21212037 18.9018849 32.10599772 19 36 C18.67 36 18.34 36 18 36 C17.9498877 35.30849854 17.89977539 34.61699707 17.84814453 33.90454102 C17.61691118 30.78970714 17.37115591 27.67618856 17.125 24.5625 C17.04636719 23.47388672 16.96773438 22.38527344 16.88671875 21.26367188 C16.80292969 20.22919922 16.71914063 19.19472656 16.6328125 18.12890625 C16.55949707 17.17056885 16.48618164 16.21223145 16.41064453 15.22485352 C16.27513184 14.49065186 16.13961914 13.7564502 16 13 C15.34 12.67 14.68 12.34 14 12 C14 10.02 14 8.04 14 6 C14.66 6 15.32 6 16 6 C16 5.34 16 4.68 16 4 C14.33324219 3.81824219 14.33324219 3.81824219 12.6328125 3.6328125 C4.67670689 2.74393209 -3.18765393 1.80432563 -11 0 C-11 -0.33 -11 -0.66 -11 -1 C-3.375 -2.25 -3.375 -2.25 0 0 Z " fill="#999998" transform="translate(242,524)"/>
<path d="M0 0 C10.76703265 0.99067128 20.65163326 2.73151158 31 6 C34.12151577 6.92862055 37.24858868 7.83802166 40.375 8.75 C42.91714013 9.49840476 45.45854915 10.24925665 48 11 C44.76502112 12.06337285 42.8416406 11.91740541 39.60546875 10.92578125 C38.74260254 10.67199707 37.87973633 10.41821289 36.99072266 10.15673828 C36.06565918 9.87813965 35.1405957 9.59954102 34.1875 9.3125 C22.59266883 5.96479297 10.91607887 3.83908449 -1 2 C-0.67 1.34 -0.34 0.68 0 0 Z " fill="#A6A6A4" transform="translate(576,393)"/>
<path d="M0 0 C0.66 0.33 1.32 0.66 2 1 C1.14535156 1.80824219 0.29070313 2.61648438 -0.58984375 3.44921875 C-1.7062542 4.5281028 -2.8221108 5.60756017 -3.9375 6.6875 C-4.50146484 7.21794922 -5.06542969 7.74839844 -5.64648438 8.29492188 C-8.90699296 11.47733445 -10.39680674 13.36246223 -11 18 C-12.3046875 19.80078125 -12.3046875 19.80078125 -13.875 21.3125 C-14.38804687 21.82425781 -14.90109375 22.33601562 -15.4296875 22.86328125 C-17 24 -17 24 -20 24 C-15.67698245 14.53259157 -7.37700298 7.10490041 0 0 Z " fill="#70716D" transform="translate(527,551)"/>
<path d="M0 0 C0.33 0.66 0.66 1.32 1 2 C0.57589844 2.59425781 0.15179688 3.18851563 -0.28515625 3.80078125 C-4.23934385 9.38878703 -7.93047773 15.05561897 -11.421875 20.9453125 C-11.94265625 21.62335938 -12.4634375 22.30140625 -13 23 C-13.99 23 -14.98 23 -16 23 C-14.3883633 18.30995613 -11.86396585 14.46348547 -9.125 10.375 C-8.69058594 9.70726562 -8.25617188 9.03953125 -7.80859375 8.3515625 C-5.53479563 4.93745121 -3.55678998 2.20024683 0 0 Z " fill="#3F3F3F" transform="translate(395,228)"/>
<path d="M0 0 C-0.763125 0.268125 -1.52625 0.53625 -2.3125 0.8125 C-4.93125064 1.77330766 -4.93125064 1.77330766 -6.26953125 3.28515625 C-8.73378515 5.72715955 -11.53969622 7.64539601 -14.375 9.625 C-14.93960937 10.03234375 -15.50421875 10.4396875 -16.0859375 10.859375 C-19.35495786 13.14466238 -22.01340575 14.56699913 -26 15 C-26 14.34 -26 13.68 -26 13 C-24.05143101 11.46704542 -22.11653005 10.06629067 -20.0625 8.6875 C-19.47218994 8.28740723 -18.88187988 7.88731445 -18.27368164 7.47509766 C-4.67719351 -1.6458721 -4.67719351 -1.6458721 0 0 Z " fill="#4B4C4B" transform="translate(402,120)"/>
<path d="M0 0 C0 0.66 0 1.32 0 2 C-0.66644531 2.32871094 -1.33289063 2.65742187 -2.01953125 2.99609375 C-9.46882471 6.84055429 -15.68676838 11.50492413 -22 17 C-22.66 16.34 -23.32 15.68 -24 15 C-7.31360947 0 -7.31360947 0 0 0 Z " fill="#393939" transform="translate(256,740)"/>
<path d="M0 0 C8.15558296 5.13499668 12.73614914 12.12579687 18 20 C17.67 20.66 17.34 21.32 17 22 C12.62553606 18.85855373 9.8324418 15.36772218 6.8125 11 C6.37486328 10.38382812 5.93722656 9.76765625 5.48632812 9.1328125 C3.41630436 6.1873741 1.47306863 3.29177348 0 0 Z " fill="#3D3D3C" transform="translate(718,472)"/>
<path d="M0 0 C2.39311856 2.23027321 4.11607982 4.56002762 5.875 7.3125 C7.7428246 10.19147776 9.64286676 12.82469731 11.9375 15.375 C12.618125 16.24125 13.29875 17.1075 14 18 C13.67 18.99 13.34 19.98 13 21 C1.56946827 9.90566038 1.56946827 9.90566038 0 3 C0 2.01 0 1.02 0 0 Z " fill="#555655" transform="translate(485,692)"/>
<path d="M0 0 C0.33 0 0.66 0 1 0 C2.59493882 11.87530479 3.92475262 22.44060086 0 34 C-0.44150885 35.37324709 -0.88152844 36.7469736 -1.3203125 38.12109375 C-2.49936005 41.76480983 -3.73508846 45.3852528 -5 49 C-6.26473112 45.20580664 -5.48133766 43.86478517 -4.1875 40.125 C0.07221216 26.72680499 0.24978588 13.91862423 0 0 Z " fill="#B5B7B6" transform="translate(843,629)"/>
<path d="M0 0 C0.33 0 0.66 0 1 0 C1.66553342 5.96127796 -0.57229079 9.77020261 -3.375 14.8125 C-3.7875 15.58787109 -4.2 16.36324219 -4.625 17.16210938 C-7.71412628 22.85706314 -7.71412628 22.85706314 -10 24 C-9.54803484 17.81218608 -7.44359034 13.43479315 -4.4375 8.0625 C-4.01275391 7.28326172 -3.58800781 6.50402344 -3.15039062 5.70117188 C-2.10987146 3.79550195 -1.05625582 1.89699278 0 0 Z " fill="#5D5D5C" transform="translate(836,675)"/>
<path d="M0 0 C0.99 0 1.98 0 3 0 C4.68359375 2.16015625 4.68359375 2.16015625 6.4375 5.0625 C7.0459375 6.06023438 7.654375 7.05796875 8.28125 8.0859375 C10.22068089 11.37415442 12.14600443 14.66280798 14 18 C11.07698987 17.6659417 10.13827306 17.16057517 8.18359375 14.890625 C7.60738281 14.01921875 7.03117187 13.1478125 6.4375 12.25 C5.85871094 11.38890625 5.27992188 10.5278125 4.68359375 9.640625 C0 2.29466357 0 2.29466357 0 0 Z " fill="#474846" transform="translate(283,621)"/>
<path d="M0 0 C0.33 0 0.66 0 1 0 C1.93387043 7.00402819 -0.97466956 12.33907301 -5 18 C-5.99 18.33 -6.98 18.66 -8 19 C-7.38188466 14.44684052 -5.53234107 10.71540233 -3.4375 6.6875 C-2.9434668 5.71973633 -2.9434668 5.71973633 -2.43945312 4.73242188 C-1.63175745 3.15214772 -0.81662387 1.57567895 0 0 Z " fill="#444444" transform="translate(528,194)"/>
<path d="M0 0 C0.33 0.66 0.66 1.32 1 2 C0.02417969 2.10957031 -0.95164062 2.21914063 -1.95703125 2.33203125 C-3.86548828 2.56986328 -3.86548828 2.56986328 -5.8125 2.8125 C-7.07707031 2.96332031 -8.34164063 3.11414063 -9.64453125 3.26953125 C-13.01879941 4.00409254 -13.91033751 4.42389149 -16 7 C-19.97047737 8.21320142 -23.8748681 8.08088494 -28 8 C-24.51038148 4.85214824 -20.71619879 3.91268559 -16.25 2.875 C-15.57195312 2.70613281 -14.89390625 2.53726563 -14.1953125 2.36328125 C-9.48280395 1.22547025 -4.81820748 0.52935463 0 0 Z " fill="#7C7D7C" transform="translate(471,729)"/>
<path d="M0 0 C1.10370043 3.3111013 0.92673641 5.24748949 0.5625 8.6875 C0.40974609 10.17830078 0.40974609 10.17830078 0.25390625 11.69921875 C0.12822266 12.83810547 0.12822266 12.83810547 0 14 C0.66 14 1.32 14 2 14 C3.21875 15.6796875 3.21875 15.6796875 4.5 17.875 C5.89818809 20.25362486 7.03792084 22.03792084 9 24 C8.01 24.33 7.02 24.66 6 25 C1.13808037 19.74455685 -1.88322801 15.60055614 -2.15625 8.30859375 C-1.9524735 5.29779594 -1.22972004 2.74878596 0 0 Z " fill="#8F8F8D" transform="translate(416,766)"/>
<path d="M0 0 C2.1262438 1.85922713 3.40265894 3.62975197 5 6 C4.67 6.66 4.34 7.32 4 8 C2.60026042 6.76302083 1.20052083 5.52604167 -0.19921875 4.2890625 C-4.76841499 1.01827127 -8.78006948 0.77159008 -14.3125 0.875 C-15.56675781 0.89304687 -16.82101562 0.91109375 -18.11328125 0.9296875 C-19.54220703 0.96449219 -19.54220703 0.96449219 -21 1 C-18.05820547 -4.88358906 -5.11111692 -2.0988617 0 0 Z " fill="#9D9E9C" transform="translate(283,384)"/>
<path d="M0 0 C4.99578984 0.39252634 6.81860325 2.53174255 10 6.25 C13.22570617 9.97972276 16.47847023 13.55393159 20 17 C16.76306836 15.51516897 14.0674375 13.67292565 11.25 11.5 C10.45078125 10.8915625 9.6515625 10.283125 8.828125 9.65625 C8.22484375 9.1096875 7.6215625 8.563125 7 8 C7 7.34 7 6.68 7 6 C6.401875 5.7525 5.80375 5.505 5.1875 5.25 C2.71352479 3.83629988 1.56629745 2.34944617 0 0 Z " fill="#717170" transform="translate(656,801)"/>
<path d="M0 0 C6.89112013 0.51683401 11.98461732 3.73269448 16.5 8.8125 C16.995 9.534375 17.49 10.25625 18 11 C13.93153697 10.3470368 10.74332963 8.20914312 7.3125 6.0625 C6.71888672 5.70220703 6.12527344 5.34191406 5.51367188 4.97070312 C1.12748374 2.25496749 1.12748374 2.25496749 0 0 Z " fill="#656463" transform="translate(185,502)"/>
<path d="M0 0 C0.66 0.99 1.32 1.98 2 3 C-7.22551253 13.74259681 -7.22551253 13.74259681 -13 17 C-11.2703384 12.79046213 -8.31793255 9.64856424 -5.375 6.25 C-4.859375 5.64800781 -4.34375 5.04601562 -3.8125 4.42578125 C-2.54530865 2.94739134 -1.27314225 1.47326829 0 0 Z " fill="#575857" transform="translate(412,205)"/>
<path d="M0 0 C6.8121079 5.8659818 9.12676128 13.41432254 11 22 C8.7696735 19.93671984 7.31948998 18.02298536 5.95703125 15.3125 C5.43012695 14.26449219 5.43012695 14.26449219 4.89257812 13.1953125 C4.53615234 12.47085938 4.17972656 11.74640625 3.8125 11 C3.26045898 9.91332031 3.26045898 9.91332031 2.69726562 8.8046875 C2.34986328 8.10601563 2.00246094 7.40734375 1.64453125 6.6875 C1.17043823 5.73423828 1.17043823 5.73423828 0.68676758 4.76171875 C0 3 0 3 0 0 Z " fill="#6E6E6D" transform="translate(272,599)"/>
<path d="M0 0 C4.68554244 4.35086084 7.75617197 9.54447104 11 15 C11.99 16.485 11.99 16.485 13 18 C8.66223861 16.44572016 6.37649106 13.10268248 3.6875 9.5625 C3.22021484 8.97662109 2.75292969 8.39074219 2.27148438 7.78710938 C0.94921875 6.06640625 0.94921875 6.06640625 -1 3 C-0.67 2.01 -0.34 1.02 0 0 Z " fill="#616260" transform="translate(166,479)"/>
<path d="M0 0 C1.2065625 0.16757812 2.413125 0.33515625 3.65625 0.5078125 C5.27073444 0.71431632 6.88532368 0.92000191 8.5 1.125 C9.29148437 1.23714844 10.08296875 1.34929688 10.8984375 1.46484375 C16.47589738 2.15059701 20.62719268 1.6635986 26 0 C26 0.66 26 1.32 26 2 C25.360625 2.12375 24.72125 2.2475 24.0625 2.375 C23.381875 2.58125 22.70125 2.7875 22 3 C21.67 3.66 21.34 4.32 21 5 C20.05125 4.979375 19.1025 4.95875 18.125 4.9375 C15.09333717 4.77448174 15.09333717 4.77448174 13 6 C12.67 5.34 12.34 4.68 12 4 C9.45123766 3.38438582 9.45123766 3.38438582 6.5 3 C3.46875 2.5625 3.46875 2.5625 1 2 C0.67 1.34 0.34 0.68 0 0 Z " fill="#949593" transform="translate(735,850)"/>
<path d="M0 0 C0.763125 0.0825 1.52625 0.165 2.3125 0.25 C0.67837557 1.95840281 -0.55656094 3.18453047 -2.6875 4.25 C-2.22831638 10.03571366 -1.32438081 14.89504821 0.7890625 20.3046875 C1.3125 22.25 1.3125 22.25 0.3125 25.25 C-5.67732962 9.95558067 -5.67732962 9.95558067 -5.6875 4.25 C-3.44188596 0.32017544 -3.44188596 0.32017544 0 0 Z " fill="#979895" transform="translate(404.6875,341.75)"/>
<path d="M0 0 C0.33 0.66 0.66 1.32 1 2 C-2.63 6.95 -6.26 11.9 -10 17 C-10 13.73204297 -9.42149484 11.9178052 -8 9 C-7.01 8.34 -6.02 7.68 -5 7 C-4.67 6.175 -4.34 5.35 -4 4.5 C-3 2 -3 2 0 0 Z " fill="#767675" transform="translate(373,745)"/>
<path d="M0 0 C1.2989839 0.90626784 2.58893167 1.82549537 3.875 2.75 C4.59429688 3.26046875 5.31359375 3.7709375 6.0546875 4.296875 C8.11827615 6.103551 8.89902886 7.52281494 10 10 C11.3050581 11.68889872 12.63360658 13.3603279 14 15 C10.64940564 13.50488352 8.08402589 11.58338106 5.3125 9.1875 C4.52488281 8.52105469 3.73726562 7.85460937 2.92578125 7.16796875 C0.76324593 4.73347158 0.32915423 3.19670125 0 0 Z " fill="#646462" transform="translate(522,708)"/>
<path d="M0 0 C6.35356588 0.70595176 10.2290828 7.36715886 14 12 C10.71228388 10.45600247 7.75266163 8.60378313 4.75 6.5625 C3.85796875 5.96566406 2.9659375 5.36882812 2.046875 4.75390625 C1.37140625 4.17511719 0.6959375 3.59632813 0 3 C0 2.01 0 1.02 0 0 Z " fill="#706F6E" transform="translate(687,440)"/>
<path d="M0 0 C0.66 0.33 1.32 0.66 2 1 C-0.36470588 5.37908497 -0.36470588 5.37908497 -3 7 C-7.49332331 7.03336626 -11.69509972 6.26856543 -16 5 C-16.66 4.34 -17.32 3.68 -18 3 C-17.28714844 3.03480469 -16.57429688 3.06960938 -15.83984375 3.10546875 C-9.61130254 3.28151096 -5.5692281 2.72536694 0 0 Z " fill="#808281" transform="translate(282,419)"/>
<path d="M0 0 C0 3 0 3 -2.625 5.91796875 C-3.74249406 7.01550756 -4.86785643 8.10507895 -6 9.1875 C-6.57234375 9.74630859 -7.1446875 10.30511719 -7.734375 10.88085938 C-9.14962788 12.26073093 -10.57397155 13.63126734 -12 15 C-12.33 13.68 -12.66 12.36 -13 11 C-12.34 11 -11.68 11 -11 11 C-10.67 10.01 -10.34 9.02 -10 8 C-8.34151823 6.98648336 -6.67334039 5.98879205 -5 5 C-3.2958946 3.37163262 -1.61974559 1.71230248 0 0 Z " fill="#7E7F7C" transform="translate(466,289)"/>
<path d="M0 0 C-0.66 0 -1.32 0 -2 0 C-2.33 0.66 -2.66 1.32 -3 2 C-5.27509409 3.28592275 -7.53301405 4.47504283 -9.875 5.625 C-10.51308594 5.94984375 -11.15117188 6.2746875 -11.80859375 6.609375 C-14.7237431 8.05782082 -16.70246267 9 -20 9 C-17.77689833 5.51592591 -15.93035999 4.25928673 -12.0625 2.875 C-8.38134269 1.53721907 -8.38134269 1.53721907 -4.87109375 -0.1796875 C-3 -1 -3 -1 0 0 Z " fill="#8B8C89" transform="translate(541,535)"/>
<path d="M0 0 C-2.63071435 2.63071435 -4.40379529 2.55327677 -8.0625 3.0625 C-9.80273438 3.30806641 -9.80273438 3.30806641 -11.578125 3.55859375 C-15.71514629 4.09225061 -19.85009996 4.57797627 -24 5 C-21.18694188 2.18694188 -18.03023141 2.03891161 -14.25 1.375 C-13.19425781 1.17390625 -13.19425781 1.17390625 -12.1171875 0.96875 C-8.0256116 0.22344435 -4.1773014 -0.14449785 0 0 Z " fill="#A7A7A3" transform="translate(570,527)"/>
<path d="M0 0 C4.87885059 0.41818719 6.77959703 2.44929929 10 6 C11.1446875 7.1446875 11.1446875 7.1446875 12.3125 8.3125 C12.869375 8.869375 13.42625 9.42625 14 10 C10.19136032 8.65378455 7.34590149 6.94641263 4.1875 4.4375 C3.39730469 3.81746094 2.60710938 3.19742188 1.79296875 2.55859375 C0.90544922 1.78708984 0.90544922 1.78708984 0 1 C0 0.67 0 0.34 0 0 Z " fill="#6D6D6B" transform="translate(676,818)"/>
<path d="M0 0 C0.33 0.66 0.66 1.32 1 2 C-0.24493748 4.28974316 -1.52641528 6.44190034 -2.9375 8.625 C-3.32357422 9.23601562 -3.70964844 9.84703125 -4.10742188 10.4765625 C-5.06446326 11.9889242 -6.03132811 13.49506117 -7 15 C-8 13 -8 13 -7.25 10.125 C-5.5637686 5.9094215 -3.25982646 3.10459663 0 0 Z " fill="#6F6F6E" transform="translate(383,226)"/>
<path d="M0 0 C1.19046765 3.57140295 0.77683729 4.06081699 -0.8125 7.3125 C-2.46957582 10.82160174 -3.85643221 14.2834047 -5 18 C-6.30132651 14.09602048 -5.95976674 10.97259974 -5 7 C-3.5625 5.25 -3.5625 5.25 -2 4 C-0.82425289 1.90010348 -0.82425289 1.90010348 0 0 Z " fill="#7F7F7D" transform="translate(360,270)"/>
<path d="M0 0 C-1.1446875 0.4021875 -1.1446875 0.4021875 -2.3125 0.8125 C-4.98138578 1.76572763 -4.98138578 1.76572763 -6.3125 3.5 C-9.08986918 5.9687726 -12.40783383 6.23445639 -16 7 C-13.74955401 4.55542608 -11.44198707 2.90097066 -8.5625 1.25 C-7.41974609 0.57710938 -7.41974609 0.57710938 -6.25390625 -0.109375 C-3.66585264 -1.13203743 -2.56366999 -0.95772637 0 0 Z " fill="#797977" transform="translate(402,120)"/>
<path d="M0 0 C0.33 0.99 0.66 1.98 1 3 C0.34 3.66 -0.32 4.32 -1 5 C-1 1 -1 1 0 0 Z M-3 5 C-2.34 5.33 -1.68 5.66 -1 6 C-2.98 9.96 -4.96 13.92 -7 18 C-7.66 18 -8.32 18 -9 18 C-7.58707905 13.1725201 -5.57025846 9.2837641 -3 5 Z " fill="#070707" transform="translate(172,403)"/>
<path d="M0 0 C0.33 0 0.66 0 1 0 C1.08097324 2.27024968 1.13917704 4.54132075 1.1875 6.8125 C1.22230469 8.07707031 1.25710938 9.34164063 1.29296875 10.64453125 C1 14 1 14 -0.51171875 15.94921875 C-1.00285156 16.29597656 -1.49398438 16.64273437 -2 17 C-2.11116338 11.55299453 -2.00581962 6.36437132 -1 1 C-0.67 0.67 -0.34 0.34 0 0 Z " fill="#0E0D0E" transform="translate(301,270)"/>
<path d="M0 0 C0 3.83764027 -1.26535335 5.11486085 -3.5 8.1875 C-4.1496875 9.08855469 -4.799375 9.98960937 -5.46875 10.91796875 C-5.9740625 11.60503906 -6.479375 12.29210937 -7 13 C-8 11 -8 11 -7.1875 8.4375 C-6 6 -6 6 -4 5 C-3.855625 4.34 -3.71125 3.68 -3.5625 3 C-3.376875 2.34 -3.19125 1.68 -3 1 C-2.01 0.67 -1.02 0.34 0 0 Z " fill="#737271" transform="translate(388,724)"/>
<path d="M0 0 C0.99 0 1.98 0 3 0 C1.54955729 4.10958767 -0.51110752 7.43258745 -3 11 C-3.33 10.34 -3.66 9.68 -4 9 C-2.79149247 5.92379901 -1.47778215 2.9555643 0 0 Z " fill="#60605F" transform="translate(412,180)"/>
<path d="M0 0 C0.66 0.33 1.32 0.66 2 1 C0.59419724 2.65512248 -0.82506266 4.29882206 -2.25 5.9375 C-3.03890625 6.85402344 -3.8278125 7.77054688 -4.640625 8.71484375 C-6.91251033 10.91526249 -7.92319022 11.66832555 -11 12 C-9.55928394 8.58301375 -7.76769435 6.68041215 -4.9375 4.3125 C-3.86822266 3.40951172 -3.86822266 3.40951172 -2.77734375 2.48828125 C-1.89755859 1.75158203 -1.89755859 1.75158203 -1 1 C-0.67 0.67 -0.34 0.34 0 0 Z " fill="#787878" transform="translate(374,135)"/>
<path d="M0 0 C1 2 1 2 0.22265625 4.8203125 C-0.16019531 5.91085938 -0.54304688 7.00140625 -0.9375 8.125 C-1.31777344 9.22070312 -1.69804687 10.31640625 -2.08984375 11.4453125 C-2.39019531 12.28835937 -2.69054687 13.13140625 -3 14 C-3.66 13.67 -4.32 13.34 -5 13 C-4.55005243 11.20620902 -4.08975857 9.41501072 -3.625 7.625 C-3.36976563 6.62726563 -3.11453125 5.62953125 -2.8515625 4.6015625 C-2 2 -2 2 0 0 Z " fill="#0C0C0C" transform="translate(312,233)"/>
<path d="M0 0 C4.55727842 1.72862285 5.90834857 4.81669715 8 9 C6.35 8.67 4.7 8.34 3 8 C3 7.01 3 6.02 3 5 C1.68 4.34 0.36 3.68 -1 3 C-0.67 2.01 -0.34 1.02 0 0 Z " fill="#616260" transform="translate(648,792)"/>
<path d="M0 0 C3.39417765 3.12621626 5.6062718 5.56541027 7 10 C4.0625 8.375 4.0625 8.375 1 6 C0.125 2.75 0.125 2.75 0 0 Z " fill="#626261" transform="translate(729,484)"/>
<path d="M0 0 C0.33 0.66 0.66 1.32 1 2 C-1.4 8.4 -1.4 8.4 -4 11 C-4.66 11 -5.32 11 -6 11 C-4.54955729 6.89041233 -2.48889248 3.56741255 0 0 Z " fill="#616362" transform="translate(385,240)"/>
<path d="M0 0 C0.66 0 1.32 0 2 0 C2 0.66 2 1.32 2 2 C2.99 2.33 3.98 2.66 5 3 C5.33 4.65 5.66 6.3 6 8 C4.68 7.34 3.36 6.68 2 6 C2 5.34 2 4.68 2 4 C1.34 4 0.68 4 0 4 C-0.33 3.01 -0.66 2.02 -1 1 C-0.67 0.67 -0.34 0.34 0 0 Z " fill="#515150" transform="translate(307,651)"/>
<path d="M0 0 C0 0.99 0 1.98 0 3 C-1.28788008 3.53012738 -2.58046678 4.0488329 -3.875 4.5625 C-4.95394531 4.99755859 -4.95394531 4.99755859 -6.0546875 5.44140625 C-8 6 -8 6 -10 5 C-8.71186658 4.16121545 -7.41936744 3.32913217 -6.125 2.5 C-5.40570312 2.0359375 -4.68640625 1.571875 -3.9453125 1.09375 C-2 0 -2 0 0 0 Z " fill="#606060" transform="translate(802,610)"/>
<path d="M0 0 C0.66 0 1.32 0 2 0 C1.125 6.75 1.125 6.75 0 9 C-0.99 8.67 -1.98 8.34 -3 8 C-2.01 5.36 -1.02 2.72 0 0 Z " fill="#494948" transform="translate(480,589)"/>
<path d="M0 0 C0.125 5.75 0.125 5.75 -1 8 C-1.99 8 -2.98 8 -4 8 C-3.74438677 5.6568787 -3.40729228 3.32156597 -3 1 C-1 0 -1 0 0 0 Z " fill="#434444" transform="translate(308,246)"/>
<path d="M0 0 C0.66 0.33 1.32 0.66 2 1 C1.75 2.875 1.75 2.875 1 5 C-0.75 6 -0.75 6 -3 7 C-4.68889872 8.3050581 -6.3603279 9.63360658 -8 11 C-6.63629701 8.00779732 -5.05091917 5.70973471 -2.875 3.25 C-2.33617187 2.63640625 -1.79734375 2.0228125 -1.2421875 1.390625 C-0.62730469 0.70226562 -0.62730469 0.70226562 0 0 Z " fill="#8A8B89" transform="translate(421,194)"/>
<path d="M0 0 C5.78461538 3.32307692 5.78461538 3.32307692 6.875 6.75 C6.936875 7.86375 6.936875 7.86375 7 9 C3.26115668 6.34345343 1.35021826 4.41889613 0 0 Z " fill="#353534" transform="translate(735,818)"/>
<path d="M0 0 C3.064916 2.04327733 4.4932198 3.66355813 6 7 C6.66 7.66 7.32 8.32 8 9 C7.01 9.33 6.02 9.66 5 10 C0 4.5 0 4.5 0 0 Z " fill="#535452" transform="translate(417,781)"/>
<path d="M0 0 C2.6597889 1.32989445 2.9835728 2.68898191 4.1875 5.375 C4.55230469 6.16648437 4.91710937 6.95796875 5.29296875 7.7734375 C6 10 6 10 5 13 C4.896875 12.360625 4.79375 11.72125 4.6875 11.0625 C4.460625 10.381875 4.23375 9.70125 4 9 C3.01 8.67 2.02 8.34 1 8 C0.67 5.36 0.34 2.72 0 0 Z " fill="#888987" transform="translate(749,517)"/>
<path d="M0 0 C0.33 0 0.66 0 1 0 C0.67 2.97 0.34 5.94 0 9 C-0.99 9.33 -1.98 9.66 -3 10 C-3.3648363 5.74357648 -2.47460354 3.46444495 0 0 Z " fill="#515250" transform="translate(357,288)"/>
<path d="M0 0 C-7.28571429 3.42857143 -7.28571429 3.42857143 -12 3 C-12 2.34 -12 1.68 -12 1 C-3.96428571 -1.27678571 -3.96428571 -1.27678571 0 0 Z " fill="#0D0D0D" transform="translate(285,733)"/>
<path d="M0 0 C0.99 0.33 1.98 0.66 3 1 C3 4.63 3 8.26 3 12 C2.01 11.67 1.02 11.34 0 11 C0 7.37 0 3.74 0 0 Z " fill="#7A7B7A" transform="translate(315,661)"/>
<path d="M0 0 C1.22589844 0.01353516 1.22589844 0.01353516 2.4765625 0.02734375 C3.41628906 0.04474609 3.41628906 0.04474609 4.375 0.0625 C2.20318742 2.51956557 1.73612209 3.02565081 -1.6875 3.375 C-4.625 3.0625 -4.625 3.0625 -6.625 1.0625 C-4.21954362 -0.14022819 -2.67503047 -0.03821472 0 0 Z " fill="#212221" transform="translate(570.625,393.9375)"/>
<path d="M0 0 C3.67420866 0.30618405 4.78135513 0.75771784 7.3125 3.5625 C8.1478125 4.7690625 8.1478125 4.7690625 9 6 C8.67 6.66 8.34 7.32 8 8 C6.50260417 6.73046875 5.00520833 5.4609375 3.5078125 4.19140625 C1.99405921 2.9121848 1.99405921 2.9121848 0 2 C0 1.34 0 0.68 0 0 Z " fill="#737373" transform="translate(279,384)"/>
<path d="M0 0 C0 4.05480631 -1.54870092 5.84832975 -4 9 C-4.99 9 -5.98 9 -7 9 C-6.02180976 7.68677212 -5.0424189 6.37443848 -4.0625 5.0625 C-3.51722656 4.33160156 -2.97195313 3.60070312 -2.41015625 2.84765625 C-1 1 -1 1 0 0 Z " fill="#0B0B0B" transform="translate(403,218)"/>
<path d="M0 0 C0.33 0 0.66 0 1 0 C1.36923077 5.53846154 1.36923077 5.53846154 -0.5 7.875 C-1.2425 8.431875 -1.2425 8.431875 -2 9 C-3 6 -3 6 -1.5625 2.8125 C-1.046875 1.884375 -0.53125 0.95625 0 0 Z " fill="#3C3D3C" transform="translate(836,675)"/>
<path d="M0 0 C0.33 0 0.66 0 1 0 C1.33 2.64 1.66 5.28 2 8 C0.02 8.99 0.02 8.99 -2 10 C-1.34 6.7 -0.68 3.4 0 0 Z " fill="#6D6F6D" transform="translate(314,672)"/>
<path d="M0 0 C1.98 1.65 3.96 3.3 6 5 C4.1875 5.625 4.1875 5.625 2 6 C1.01 5.34 0.02 4.68 -1 4 C-0.67 2.68 -0.34 1.36 0 0 Z " fill="#575757" transform="translate(748,831)"/>
<path d="M0 0 C0.33 0.99 0.66 1.98 1 3 C-1.31 4.65 -3.62 6.3 -6 8 C-6.33 7.34 -6.66 6.68 -7 6 C-4.69 4.02 -2.38 2.04 0 0 Z " fill="#6F706F" transform="translate(239,749)"/>
<path d="M0 0 C3.37503669 1.1858237 5.64722731 2.27573689 8 5 C5.75 5.25 5.75 5.25 3 5 C0.6875 3 0.6875 3 -1 1 C-0.67 0.67 -0.34 0.34 0 0 Z " fill="#626261" transform="translate(661,422)"/>
<path d="M0 0 C3.9492568 0.55105909 7.34920174 1.38935371 11 3 C10.67 3.66 10.34 4.32 10 5 C9.01 5 8.02 5 7 5 C7 4.34 7 3.68 7 3 C4.69 2.34 2.38 1.68 0 1 C0 0.67 0 0.34 0 0 Z " fill="#0F0F0E" transform="translate(637,412)"/>
<path d="M0 0 C0.99 0 1.98 0 3 0 C3.66 2.64 4.32 5.28 5 8 C2.20127563 5.47211993 0.54226981 3.79588866 0 0 Z " fill="#686968" transform="translate(283,621)"/>
<path d="M0 0 C0.99 0.33 1.98 0.66 3 1 C1.35 2.65 -0.3 4.3 -2 6 C-2.66 5.67 -3.32 5.34 -4 5 C-2.68 3.35 -1.36 1.7 0 0 Z " fill="#414141" transform="translate(531,548)"/>
<path d="M0 0 C0.99 0.33 1.98 0.66 3 1 C1.35 2.98 -0.3 4.96 -2 7 C-2.66 6.67 -3.32 6.34 -4 6 C-2.68 4.02 -1.36 2.04 0 0 Z " fill="#656664" transform="translate(443,310)"/>
<path d="M0 0 C0.8125 1.6875 0.8125 1.6875 1 4 C-1.4375 6.75 -1.4375 6.75 -4 9 C-2.94124926 5.59687262 -1.99097846 2.98646769 0 0 Z " fill="#777876" transform="translate(326,196)"/>
<path d="M0 0 C1 3 1 3 -0.4375 6.1875 C-1.2109375 7.5796875 -1.2109375 7.5796875 -2 9 C-4 5.25 -4 5.25 -4 3 C-3.01 2.67 -2.02 2.34 -1 2 C-0.67 1.34 -0.34 0.68 0 0 Z " fill="#6D6D6D" transform="translate(420,167)"/>
<path d="M0 0 C0.66 0.66 1.32 1.32 2 2 C1.7578125 4.1640625 1.7578125 4.1640625 1.125 6.625 C0.92132812 7.44226563 0.71765625 8.25953125 0.5078125 9.1015625 C0.34023438 9.72804688 0.17265625 10.35453125 0 11 C-0.66 11 -1.32 11 -2 11 C-1.85957123 9.35369672 -1.71250671 7.70795821 -1.5625 6.0625 C-1.48128906 5.14597656 -1.40007813 4.22945312 -1.31640625 3.28515625 C-1 1 -1 1 0 0 Z " fill="#949595" transform="translate(844,648)"/>
<path d="M0 0 C2.79872437 2.52788007 4.45773019 4.20411134 5 8 C1.9789286 5.9859524 0.39332574 4.36720387 -1 1 C-0.67 0.67 -0.34 0.34 0 0 Z " fill="#71716E" transform="translate(736,494)"/>
<path d="M0 0 C0.33 0 0.66 0 1 0 C1.144375 0.763125 1.28875 1.52625 1.4375 2.3125 C1.9632594 5.08172908 1.9632594 5.08172908 3 8 C1.68 8 0.36 8 -1 8 C-0.67 5.36 -0.34 2.72 0 0 Z " fill="#656665" transform="translate(303,254)"/>
<path d="M0 0 C0.33 0 0.66 0 1 0 C1.25 2.25 1.25 2.25 1 5 C-1 7.3125 -1 7.3125 -3 9 C-2.69181644 7.68647977 -2.37832335 6.37420428 -2.0625 5.0625 C-1.88847656 4.33160156 -1.71445312 3.60070312 -1.53515625 2.84765625 C-1 1 -1 1 0 0 Z " fill="#575756" transform="translate(506,234)"/>
<path d="M0 0 C0 0.99 0 1.98 0 3 C-2.31 4.32 -4.62 5.64 -7 7 C-5.84933177 3.5479953 -4.01648928 0 0 0 Z " fill="#727271" transform="translate(431,186)"/>
<path d="M0 0 C0.625 1.8125 0.625 1.8125 1 4 C0.01 5.485 0.01 5.485 -1 7 C-1.99 7 -2.98 7 -4 7 C-2.92598892 4.08482708 -2.22189824 2.22189824 0 0 Z " fill="#6C6E6D" transform="translate(342,171)"/>
<path d="M0 0 C0.99 1.485 0.99 1.485 2 3 C1.67 3.99 1.34 4.98 1 6 C0 5 0 5 -0.0625 2.4375 C-0.041875 1.633125 -0.02125 0.82875 0 0 Z " fill="#4A4A4A" transform="translate(288,400)"/>
<path d="M0 0 C0.66 0.33 1.32 0.66 2 1 C1.67 1.99 1.34 2.98 1 4 C0.34 3.67 -0.32 3.34 -1 3 C-0.67 2.01 -0.34 1.02 0 0 Z " fill="#343434" transform="translate(177,385)"/>
<path d="M0 0 C2.475 0.495 2.475 0.495 5 1 C4.01 1.33 3.02 1.66 2 2 C1.34 1.34 0.68 0.68 0 0 Z " fill="#000000" transform="translate(742,854)"/>
<path d="M0 0 C0.66 0.66 1.32 1.32 2 2 C1.34 2.66 0.68 3.32 0 4 C0 2.68 0 1.36 0 0 Z " fill="#242424" transform="translate(433,737)"/>
<path d="M0 0 C0.66 0.66 1.32 1.32 2 2 C1.67 2.99 1.34 3.98 1 5 C0.67 3.35 0.34 1.7 0 0 Z " fill="#3C3C3C" transform="translate(488,601)"/>
<path d="M0 0 C0.66 0 1.32 0 2 0 C1.67 1.32 1.34 2.64 1 4 C0.67 2.68 0.34 1.36 0 0 Z " fill="#555555" transform="translate(440,168)"/>
<path d="M0 0 C0.99 0.33 1.98 0.66 3 1 C2.01 1.66 1.02 2.32 0 3 C0 2.01 0 1.02 0 0 Z " fill="#626262" transform="translate(288,722)"/>
<path d="M0 0 C0.99 0.495 0.99 0.495 2 1 C1.67 1.99 1.34 2.98 1 4 C0.67 2.68 0.34 1.36 0 0 Z " fill="#383838" transform="translate(741,496)"/>
<path d="M0 0 C1.32 0.33 2.64 0.66 4 1 C2.68 1.33 1.36 1.66 0 2 C0 1.34 0 0.68 0 0 Z " fill="#636363" transform="translate(449,400)"/>
<path d="M0 0 C0.66 0 1.32 0 2 0 C2 0.99 2 1.98 2 3 C1.34 2.67 0.68 2.34 0 2 C0 1.34 0 0.68 0 0 Z " fill="#333333" transform="translate(484,636)"/>
<path d="M0 0 C0.33 0.66 0.66 1.32 1 2 C0.34 2.66 -0.32 3.32 -1 4 C-0.67 2.68 -0.34 1.36 0 0 Z " fill="#333333" transform="translate(793,608)"/>
<path d="M0 0 C0.66 0 1.32 0 2 0 C1.67 0.99 1.34 1.98 1 3 C0.67 2.01 0.34 1.02 0 0 Z " fill="#191919" transform="translate(795,608)"/>
<path d="M0 0 C0.33 0 0.66 0 1 0 C1 1.65 1 3.3 1 5 C0.67 5 0.34 5 0 5 C0 3.35 0 1.7 0 0 Z " fill="#2A2A2A" transform="translate(520,552)"/>
<path d="M0 0 C1.32 0 2.64 0 4 0 C3.67 0.66 3.34 1.32 3 2 C2.01 1.34 1.02 0.68 0 0 Z " fill="#4C4C4C" transform="translate(699,448)"/>
<path d="M0 0 C0.33 0.99 0.66 1.98 1 3 C0.34 3 -0.32 3 -1 3 C-0.67 2.01 -0.34 1.02 0 0 Z " fill="#444444" transform="translate(321,200)"/>
<path d="M0 0 C0.66 0 1.32 0 2 0 C1.67 0.99 1.34 1.98 1 3 C0.67 2.01 0.34 1.02 0 0 Z " fill="#666666" transform="translate(432,176)"/>
<path d="M0 0 C0.66 0.66 1.32 1.32 2 2 C1.01 2.495 1.01 2.495 0 3 C0 2.01 0 1.02 0 0 Z " fill="#757575" transform="translate(846,642)"/>
<path d="M0 0 C0.66 0.66 1.32 1.32 2 2 C1.01 2.495 1.01 2.495 0 3 C0 2.01 0 1.02 0 0 Z " fill="#353535" transform="translate(785,616)"/>
<path d="M0 0 C0.66 0 1.32 0 2 0 C1.67 0.99 1.34 1.98 1 3 C0.67 2.01 0.34 1.02 0 0 Z " fill="#202020" transform="translate(265,589)"/>
<path d="M0 0 C1 4 1 4 1 4 Z " fill="#606060" transform="translate(257,540)"/>
<path d="M0 0 C1.485 0.99 1.485 0.99 3 2 C2.01 2 1.02 2 0 2 C0 1.34 0 0.68 0 0 Z " fill="#151515" transform="translate(240,526)"/>
<path d="M0 0 C4 1 4 1 4 1 Z " fill="#202020" transform="translate(224,336)"/>
<path d="M0 0 C1 4 1 4 1 4 Z " fill="#202020" transform="translate(256,312)"/>
<path d="M0 0 C0.33 0.99 0.66 1.98 1 3 C0.34 2.67 -0.32 2.34 -1 2 C-0.67 1.34 -0.34 0.68 0 0 Z " fill="#505050" transform="translate(358,280)"/>
<path d="M0 0 C0.66 0.66 1.32 1.32 2 2 C1.34 2 0.68 2 0 2 C0 1.34 0 0.68 0 0 Z " fill="#555555" transform="translate(657,804)"/>
<path d="M0 0 C0.99 0.495 0.99 0.495 2 1 C1.01 1.495 1.01 1.495 0 2 C0 1.34 0 0.68 0 0 Z " fill="#555555" transform="translate(416,760)"/>
<path d="M0 0 C0.99 0.495 0.99 0.495 2 1 C1.01 1.495 1.01 1.495 0 2 C0 1.34 0 0.68 0 0 Z " fill="#474747" transform="translate(232,752)"/>
<path d="M0 0 C0.99 0.495 0.99 0.495 2 1 C1.01 1.495 1.01 1.495 0 2 C0 1.34 0 0.68 0 0 Z " fill="#2A2A2A" transform="translate(240,744)"/>
<path d="M0 0 C0.66 0.66 1.32 1.32 2 2 C1.34 2 0.68 2 0 2 C0 1.34 0 0.68 0 0 Z " fill="#2A2A2A" transform="translate(248,738)"/>
<path d="M0 0 C3 1 3 1 3 1 Z " fill="#474747" transform="translate(434,736)"/>
<path d="M0 0 C0.99 0.495 0.99 0.495 2 1 C1.01 1.495 1.01 1.495 0 2 C0 1.34 0 0.68 0 0 Z " fill="#474747" transform="translate(296,712)"/>
<path d="M0 0 C0.66 0 1.32 0 2 0 C1.67 0.66 1.34 1.32 1 2 C0.67 1.34 0.34 0.68 0 0 Z " fill="#2A2A2A" transform="translate(305,691)"/>
<path d="M0 0 C3 1 3 1 3 1 Z " fill="#717171" transform="translate(485,688)"/>
<path d="M0 0 C0.66 0 1.32 0 2 0 C1.67 0.66 1.34 1.32 1 2 C0.67 1.34 0.34 0.68 0 0 Z " fill="#2A2A2A" transform="translate(489,663)"/>
<path d="M0 0 C0.33 0.66 0.66 1.32 1 2 C0.34 1.67 -0.32 1.34 -1 1 C-0.67 0.67 -0.34 0.34 0 0 Z " fill="#474747" transform="translate(497,586)"/>
<path d="M0 0 C0.66 0 1.32 0 2 0 C1.67 0.66 1.34 1.32 1 2 C0.67 1.34 0.34 0.68 0 0 Z " fill="#000000" transform="translate(504,568)"/>
<path d="M0 0 C0.66 0.66 1.32 1.32 2 2 C1.34 2 0.68 2 0 2 C0 1.34 0 0.68 0 0 Z " fill="#555555" transform="translate(765,553)"/>
<path d="" fill="#808080" transform="translate(0,0)"/>
<path d="" fill="#2A2A2A" transform="translate(0,0)"/>
<path d="M0 0 C3 1 3 1 3 1 Z " fill="#2A2A2A" transform="translate(542,537)"/>
<path d="M0 0 C0.66 0.66 1.32 1.32 2 2 C1.34 2 0.68 2 0 2 C0 1.34 0 0.68 0 0 Z " fill="#000000" transform="translate(161,478)"/>
<path d="" fill="#555555" transform="translate(0,0)"/>
<path d="M0 0 C3 1 3 1 3 1 Z " fill="#000000" transform="translate(644,411)"/>
<path d="M0 0 C0.66 0.66 1.32 1.32 2 2 C1.34 2 0.68 2 0 2 C0 1.34 0 0.68 0 0 Z " fill="#2A2A2A" transform="translate(254,409)"/>
<path d="M0 0 C3 1 3 1 3 1 Z " fill="#000000" transform="translate(620,401)"/>
<path d="M0 0 C0.99 0.495 0.99 0.495 2 1 C1.01 1.495 1.01 1.495 0 2 C0 1.34 0 0.68 0 0 Z " fill="#474747" transform="translate(288,304)"/>
<path d="M0 0 C0.33 0.66 0.66 1.32 1 2 C0.34 1.67 -0.32 1.34 -1 1 C-0.67 0.67 -0.34 0.34 0 0 Z " fill="#1C1C1C" transform="translate(425,186)"/>
<path d="" fill="#474747" transform="translate(0,0)"/>
<path d="" fill="#808080" transform="translate(0,0)"/>
<path d="M0 0 C3 1 3 1 3 1 Z " fill="#474747" transform="translate(512,129)"/>
<path d="M0 0 C2 1 2 1 2 1 Z " fill="#404040" transform="translate(752,855)"/>
<path d="M0 0 C2 1 2 1 2 1 Z " fill="#000000" transform="translate(688,831)"/>
<path d="M0 0 C2 1 2 1 2 1 Z " fill="#404040" transform="translate(356,775)"/>
<path d="" fill="#404040" transform="translate(0,0)"/>
<path d="" fill="#404040" transform="translate(0,0)"/>
<path d="M0 0 C2 1 2 1 2 1 Z " fill="#000000" transform="translate(774,750)"/>
<path d="M0 0 C2 1 2 1 2 1 Z " fill="#000000" transform="translate(425,747)"/>
<path d="" fill="#404040" transform="translate(0,0)"/>
<path d="M0 0 C2 1 2 1 2 1 Z " fill="#404040" transform="translate(276,730)"/>
<path d="M0 0 C2 1 2 1 2 1 Z " fill="#404040" transform="translate(464,728)"/>
<path d="" fill="#000000" transform="translate(0,0)"/>
<path d="M0 0 C2 1 2 1 2 1 Z " fill="#555555" transform="translate(304,689)"/>
<path d="" fill="#333333" transform="translate(0,0)"/>
<path d="" fill="#808080" transform="translate(0,0)"/>
<path d="" fill="#6A6A6A" transform="translate(0,0)"/>
<path d="" fill="#000000" transform="translate(0,0)"/>
<path d="M0 0 C2 1 2 1 2 1 Z " fill="#404040" transform="translate(798,608)"/>
<path d="" fill="#808080" transform="translate(0,0)"/>
<path d="" fill="#000000" transform="translate(0,0)"/>
<path d="" fill="#808080" transform="translate(0,0)"/>
<path d="" fill="#000000" transform="translate(0,0)"/>
<path d="" fill="#000000" transform="translate(0,0)"/>
<path d="" fill="#808080" transform="translate(0,0)"/>
<path d="M0 0 C2 1 2 1 2 1 Z " fill="#808080" transform="translate(224,523)"/>
<path d="M0 0 C2 1 2 1 2 1 Z " fill="#000000" transform="translate(718,464)"/>
<path d="" fill="#808080" transform="translate(0,0)"/>
<path d="" fill="#404040" transform="translate(0,0)"/>
<path d="" fill="#000000" transform="translate(0,0)"/>
<path d="" fill="#000000" transform="translate(0,0)"/>
<path d="M0 0 C2 1 2 1 2 1 Z " fill="#404040" transform="translate(655,416)"/>
<path d="M0 0 C2 1 2 1 2 1 Z " fill="#404040" transform="translate(280,416)"/>
<path d="" fill="#000000" transform="translate(0,0)"/>
<path d="" fill="#404040" transform="translate(0,0)"/>
<path d="" fill="#404040" transform="translate(0,0)"/>
<path d="M0 0 C2 1 2 1 2 1 Z " fill="#404040" transform="translate(455,401)"/>
<path d="M0 0 C2 1 2 1 2 1 Z " fill="#000000" transform="translate(616,400)"/>
<path d="M0 0 C2 1 2 1 2 1 Z " fill="#5D5D5D" transform="translate(464,400)"/>
<path d="M0 0 C2 1 2 1 2 1 Z " fill="#404040" transform="translate(496,395)"/>
<path d="M0 0 C2 1 2 1 2 1 Z " fill="#333333" transform="translate(512,392)"/>
<path d="M0 0 C2 1 2 1 2 1 Z " fill="#000000" transform="translate(424,392)"/>
<path d="M0 0 C2 1 2 1 2 1 Z " fill="#808080" transform="translate(192,368)"/>
<path d="M0 0 C2 1 2 1 2 1 Z " fill="#6A6A6A" transform="translate(200,360)"/>
<path d="M0 0 C2 1 2 1 2 1 Z " fill="#404040" transform="translate(406,351)"/>
<path d="M0 0 C2 1 2 1 2 1 Z " fill="#000000" transform="translate(413,343)"/>
<path d="" fill="#404040" transform="translate(0,0)"/>
<path d="" fill="#404040" transform="translate(0,0)"/>
<path d="M0 0 C2 1 2 1 2 1 Z " fill="#404030" transform="translate(363,269)"/>
<path d="" fill="#000000" transform="translate(0,0)"/>
<path d="" fill="#000000" transform="translate(0,0)"/>
<path d="M0 0 C2 1 2 1 2 1 Z " fill="#000000" transform="translate(305,235)"/>
<path d="" fill="#404040" transform="translate(0,0)"/>
<path d="" fill="#000000" transform="translate(0,0)"/>
<path d="M0 0 C2 1 2 1 2 1 Z " fill="#000000" transform="translate(413,200)"/>
<path d="M0 0 C2 1 2 1 2 1 Z " fill="#404040" transform="translate(409,200)"/>
<path d="" fill="#404040" transform="translate(0,0)"/>
<path d="" fill="#404040" transform="translate(0,0)"/>
<path d="" fill="#000000" transform="translate(0,0)"/>
<path d="" fill="#2A2A2A" transform="translate(0,0)"/>
<path d="M0 0 C2 1 2 1 2 1 Z " fill="#000000" transform="translate(509,130)"/>
<path d="" fill="#000000" transform="translate(0,0)"/>
<path d="" fill="#000000" transform="translate(0,0)"/>
<path d="" fill="#000000" transform="translate(0,0)"/>
<path d="" fill="#000000" transform="translate(0,0)"/>
<path d="" fill="#808080" transform="translate(0,0)"/>
<path d="" fill="#000000" transform="translate(0,0)"/>
<path d="" fill="#000000" transform="translate(0,0)"/>
<path d="" fill="#000000" transform="translate(0,0)"/>
<path d="" fill="#000000" transform="translate(0,0)"/>
<path d="" fill="#808080" transform="translate(0,0)"/>
<path d="" fill="#808080" transform="translate(0,0)"/>
<path d="" fill="#000000" transform="translate(0,0)"/>
<path d="" fill="#000000" transform="translate(0,0)"/>
<path d="" fill="#000000" transform="translate(0,0)"/>
<path d="" fill="#000000" transform="translate(0,0)"/>
<path d="" fill="#000000" transform="translate(0,0)"/>
<path d="" fill="#808080" transform="translate(0,0)"/>
<path d="" fill="#000000" transform="translate(0,0)"/>
<path d="" fill="#808080" transform="translate(0,0)"/>
<path d="" fill="#808080" transform="translate(0,0)"/>
<path d="" fill="#000000" transform="translate(0,0)"/>
<path d="" fill="#808080" transform="translate(0,0)"/>
<path d="" fill="#000000" transform="translate(0,0)"/>
<path d="" fill="#000000" transform="translate(0,0)"/>
<path d="" fill="#000000" transform="translate(0,0)"/>
<path d="" fill="#000000" transform="translate(0,0)"/>
<path d="" fill="#000000" transform="translate(0,0)"/>
<path d="" fill="#000000" transform="translate(0,0)"/>
<path d="" fill="#000000" transform="translate(0,0)"/>
<path d="" fill="#808080" transform="translate(0,0)"/>
<path d="" fill="#808080" transform="translate(0,0)"/>
<path d="" fill="#000000" transform="translate(0,0)"/>
<path d="" fill="#000000" transform="translate(0,0)"/>
<path d="" fill="#808080" transform="translate(0,0)"/>
<path d="" fill="#000000" transform="translate(0,0)"/>
<path d="" fill="#000000" transform="translate(0,0)"/>
<path d="" fill="#000000" transform="translate(0,0)"/>
<path d="" fill="#808080" transform="translate(0,0)"/>
<path d="" fill="#000000" transform="translate(0,0)"/>
<path d="" fill="#000000" transform="translate(0,0)"/>
<path d="" fill="#000000" transform="translate(0,0)"/>
<path d="" fill="#000000" transform="translate(0,0)"/>
<path d="" fill="#808080" transform="translate(0,0)"/>
<path d="" fill="#000000" transform="translate(0,0)"/>
<path d="" fill="#000000" transform="translate(0,0)"/>
<path d="" fill="#000000" transform="translate(0,0)"/>
<path d="" fill="#000000" transform="translate(0,0)"/>
<path d="" fill="#000000" transform="translate(0,0)"/>
<path d="" fill="#000000" transform="translate(0,0)"/>
<path d="" fill="#000000" transform="translate(0,0)"/>
<path d="" fill="#000000" transform="translate(0,0)"/>
<path d="" fill="#808080" transform="translate(0,0)"/>
<path d="" fill="#808080" transform="translate(0,0)"/>
<path d="" fill="#000000" transform="translate(0,0)"/>
<path d="" fill="#808080" transform="translate(0,0)"/>
<path d="" fill="#808080" transform="translate(0,0)"/>
<path d="" fill="#000000" transform="translate(0,0)"/>
<path d="" fill="#808080" transform="translate(0,0)"/>
<path d="" fill="#000000" transform="translate(0,0)"/>
<path d="" fill="#808080" transform="translate(0,0)"/>
<path d="" fill="#555555" transform="translate(0,0)"/>
<path d="" fill="#808080" transform="translate(0,0)"/>
<path d="" fill="#000000" transform="translate(0,0)"/>
<path d="" fill="#000000" transform="translate(0,0)"/>
<path d="" fill="#000000" transform="translate(0,0)"/>
<path d="" fill="#555555" transform="translate(0,0)"/>
<path d="" fill="#000000" transform="translate(0,0)"/>
<path d="" fill="#808080" transform="translate(0,0)"/>
<path d="" fill="#555555" transform="translate(0,0)"/>
<path d="" fill="#808080" transform="translate(0,0)"/>
<path d="" fill="#000000" transform="translate(0,0)"/>
<path d="" fill="#000000" transform="translate(0,0)"/>
<path d="" fill="#000000" transform="translate(0,0)"/>
<path d="" fill="#000000" transform="translate(0,0)"/>
<path d="" fill="#000000" transform="translate(0,0)"/>
<path d="" fill="#555555" transform="translate(0,0)"/>
<path d="" fill="#000000" transform="translate(0,0)"/>
<path d="" fill="#000000" transform="translate(0,0)"/>
<path d="" fill="#000000" transform="translate(0,0)"/>
<path d="" fill="#555555" transform="translate(0,0)"/>
<path d="" fill="#000000" transform="translate(0,0)"/>
<path d="" fill="#000000" transform="translate(0,0)"/>
<path d="" fill="#000000" transform="translate(0,0)"/>
<path d="" fill="#000000" transform="translate(0,0)"/>
<path d="" fill="#000000" transform="translate(0,0)"/>
<path d="" fill="#808080" transform="translate(0,0)"/>
<path d="" fill="#000000" transform="translate(0,0)"/>
<path d="" fill="#000000" transform="translate(0,0)"/>
<path d="" fill="#000000" transform="translate(0,0)"/>
<path d="" fill="#000000" transform="translate(0,0)"/>
<path d="" fill="#000000" transform="translate(0,0)"/>
<path d="" fill="#808080" transform="translate(0,0)"/>
<path d="" fill="#808080" transform="translate(0,0)"/>
<path d="" fill="#000000" transform="translate(0,0)"/>
<path d="" fill="#808080" transform="translate(0,0)"/>
<path d="" fill="#000000" transform="translate(0,0)"/>
<path d="" fill="#000000" transform="translate(0,0)"/>
<path d="" fill="#000000" transform="translate(0,0)"/>
<path d="" fill="#000000" transform="translate(0,0)"/>
<path d="" fill="#000000" transform="translate(0,0)"/>
<path d="" fill="#000000" transform="translate(0,0)"/>
<path d="" fill="#808080" transform="translate(0,0)"/>
<path d="" fill="#000000" transform="translate(0,0)"/>
<path d="" fill="#808080" transform="translate(0,0)"/>
<path d="" fill="#808080" transform="translate(0,0)"/>
<path d="" fill="#808080" transform="translate(0,0)"/>
<path d="" fill="#000000" transform="translate(0,0)"/>
<path d="" fill="#000000" transform="translate(0,0)"/>
<path d="" fill="#555555" transform="translate(0,0)"/>
<path d="" fill="#000000" transform="translate(0,0)"/>
<path d="" fill="#000000" transform="translate(0,0)"/>
<path d="" fill="#000000" transform="translate(0,0)"/>
<path d="" fill="#000000" transform="translate(0,0)"/>
<path d="" fill="#000000" transform="translate(0,0)"/>
<path d="" fill="#555555" transform="translate(0,0)"/>
<path d="" fill="#000000" transform="translate(0,0)"/>
<path d="" fill="#555555" transform="translate(0,0)"/>
<path d="" fill="#000000" transform="translate(0,0)"/>
<path d="" fill="#000000" transform="translate(0,0)"/>
<path d="" fill="#808080" transform="translate(0,0)"/>
<path d="" fill="#000000" transform="translate(0,0)"/>
<path d="" fill="#000000" transform="translate(0,0)"/>
<path d="" fill="#000000" transform="translate(0,0)"/>
<path d="" fill="#000000" transform="translate(0,0)"/>
<path d="" fill="#000000" transform="translate(0,0)"/>
<path d="" fill="#000000" transform="translate(0,0)"/>
<path d="" fill="#000000" transform="translate(0,0)"/>
<path d="" fill="#808080" transform="translate(0,0)"/>
<path d="" fill="#000000" transform="translate(0,0)"/>
<path d="" fill="#808080" transform="translate(0,0)"/>
<path d="" fill="#555555" transform="translate(0,0)"/>
<path d="" fill="#000000" transform="translate(0,0)"/>
<path d="" fill="#000000" transform="translate(0,0)"/>
<path d="" fill="#000000" transform="translate(0,0)"/>
<path d="" fill="#000000" transform="translate(0,0)"/>
<path d="" fill="#000000" transform="translate(0,0)"/>
<path d="" fill="#000000" transform="translate(0,0)"/>
<path d="" fill="#808080" transform="translate(0,0)"/>
<path d="" fill="#000000" transform="translate(0,0)"/>
<path d="" fill="#808080" transform="translate(0,0)"/>
<path d="" fill="#555555" transform="translate(0,0)"/>
<path d="" fill="#000000" transform="translate(0,0)"/>
<path d="" fill="#808080" transform="translate(0,0)"/>
<path d="" fill="#000000" transform="translate(0,0)"/>
<path d="" fill="#808080" transform="translate(0,0)"/>
<path d="" fill="#000000" transform="translate(0,0)"/>
<path d="" fill="#000000" transform="translate(0,0)"/>
<path d="" fill="#000000" transform="translate(0,0)"/>
<path d="" fill="#000000" transform="translate(0,0)"/>
<path d="" fill="#000000" transform="translate(0,0)"/>
<path d="" fill="#000000" transform="translate(0,0)"/>
<path d="" fill="#808080" transform="translate(0,0)"/>
<path d="" fill="#000000" transform="translate(0,0)"/>
<path d="" fill="#555555" transform="translate(0,0)"/>
<path d="" fill="#000000" transform="translate(0,0)"/>
<path d="" fill="#000000" transform="translate(0,0)"/>
<path d="" fill="#000000" transform="translate(0,0)"/>
<path d="" fill="#808080" transform="translate(0,0)"/>
<path d="" fill="#808080" transform="translate(0,0)"/>
<path d="" fill="#808080" transform="translate(0,0)"/>
<path d="" fill="#808080" transform="translate(0,0)"/>
<path d="" fill="#555555" transform="translate(0,0)"/>
<path d="" fill="#666666" transform="translate(0,0)"/>
<path d="" fill="#000000" transform="translate(0,0)"/>
<path d="" fill="#808080" transform="translate(0,0)"/>
<path d="" fill="#000000" transform="translate(0,0)"/>
<path d="" fill="#000000" transform="translate(0,0)"/>
<path d="" fill="#808080" transform="translate(0,0)"/>
<path d="" fill="#808080" transform="translate(0,0)"/>
<path d="" fill="#808080" transform="translate(0,0)"/>
<path d="" fill="#555555" transform="translate(0,0)"/>
<path d="" fill="#000000" transform="translate(0,0)"/>
<path d="" fill="#000000" transform="translate(0,0)"/>
<path d="" fill="#808080" transform="translate(0,0)"/>
<path d="" fill="#000000" transform="translate(0,0)"/>
<path d="" fill="#000000" transform="translate(0,0)"/>
<path d="" fill="#808080" transform="translate(0,0)"/>
<path d="" fill="#000000" transform="translate(0,0)"/>
<path d="" fill="#000000" transform="translate(0,0)"/>
<path d="" fill="#000000" transform="translate(0,0)"/>
<path d="" fill="#000000" transform="translate(0,0)"/>
<path d="" fill="#000000" transform="translate(0,0)"/>
<path d="" fill="#000000" transform="translate(0,0)"/>
<path d="" fill="#000000" transform="translate(0,0)"/>
<path d="" fill="#000000" transform="translate(0,0)"/>
<path d="" fill="#000000" transform="translate(0,0)"/>
<path d="" fill="#000000" transform="translate(0,0)"/>
<path d="" fill="#000000" transform="translate(0,0)"/>
<path d="" fill="#000000" transform="translate(0,0)"/>
<path d="" fill="#000000" transform="translate(0,0)"/>
<path d="" fill="#000000" transform="translate(0,0)"/>
<path d="" fill="#808080" transform="translate(0,0)"/>
<path d="" fill="#000000" transform="translate(0,0)"/>
<path d="" fill="#000000" transform="translate(0,0)"/>
<path d="" fill="#808080" transform="translate(0,0)"/>
<path d="" fill="#000000" transform="translate(0,0)"/>
<path d="" fill="#000000" transform="translate(0,0)"/>
<path d="" fill="#808080" transform="translate(0,0)"/>
<path d="" fill="#000000" transform="translate(0,0)"/>
<path d="" fill="#000000" transform="translate(0,0)"/>
<path d="" fill="#808080" transform="translate(0,0)"/>
<path d="" fill="#555555" transform="translate(0,0)"/>
<path d="" fill="#000000" transform="translate(0,0)"/>
<path d="" fill="#000000" transform="translate(0,0)"/>
<path d="" fill="#000000" transform="translate(0,0)"/>
<path d="" fill="#808080" transform="translate(0,0)"/>
<path d="" fill="#000000" transform="translate(0,0)"/>
<path d="" fill="#808080" transform="translate(0,0)"/>
<path d="" fill="#000000" transform="translate(0,0)"/>
<path d="" fill="#000000" transform="translate(0,0)"/>
<path d="" fill="#000000" transform="translate(0,0)"/>
<path d="" fill="#000000" transform="translate(0,0)"/>
<path d="" fill="#000000" transform="translate(0,0)"/>
<path d="" fill="#000000" transform="translate(0,0)"/>
<path d="" fill="#000000" transform="translate(0,0)"/>
<path d="" fill="#000000" transform="translate(0,0)"/>
<path d="" fill="#000000" transform="translate(0,0)"/>
<path d="" fill="#000000" transform="translate(0,0)"/>
<path d="" fill="#808080" transform="translate(0,0)"/>
<path d="" fill="#000000" transform="translate(0,0)"/>
<path d="" fill="#000000" transform="translate(0,0)"/>
<path d="" fill="#555555" transform="translate(0,0)"/>
<path d="" fill="#808080" transform="translate(0,0)"/>
<path d="" fill="#000000" transform="translate(0,0)"/>
<path d="" fill="#808080" transform="translate(0,0)"/>
<path d="" fill="#000000" transform="translate(0,0)"/>
<path d="" fill="#000000" transform="translate(0,0)"/>
<path d="" fill="#000000" transform="translate(0,0)"/>
<path d="" fill="#666666" transform="translate(0,0)"/>
<path d="" fill="#000000" transform="translate(0,0)"/>
<path d="" fill="#555555" transform="translate(0,0)"/>
<path d="" fill="#000000" transform="translate(0,0)"/>
<path d="" fill="#808080" transform="translate(0,0)"/>
<path d="" fill="#000000" transform="translate(0,0)"/>
<path d="" fill="#000000" transform="translate(0,0)"/>
<path d="" fill="#808080" transform="translate(0,0)"/>
<path d="" fill="#000000" transform="translate(0,0)"/>
<path d="" fill="#000000" transform="translate(0,0)"/>
<path d="" fill="#808080" transform="translate(0,0)"/>
<path d="" fill="#000000" transform="translate(0,0)"/>
<path d="" fill="#000000" transform="translate(0,0)"/>
<path d="" fill="#000000" transform="translate(0,0)"/>
<path d="" fill="#000000" transform="translate(0,0)"/>
<path d="" fill="#000000" transform="translate(0,0)"/>
<path d="" fill="#000000" transform="translate(0,0)"/>
<path d="" fill="#000000" transform="translate(0,0)"/>
<path d="" fill="#000000" transform="translate(0,0)"/>
<path d="" fill="#000000" transform="translate(0,0)"/>
<path d="" fill="#000000" transform="translate(0,0)"/>
<path d="" fill="#808080" transform="translate(0,0)"/>
<path d="" fill="#000000" transform="translate(0,0)"/>
<path d="" fill="#000000" transform="translate(0,0)"/>
<path d="" fill="#000000" transform="translate(0,0)"/>
<path d="" fill="#000000" transform="translate(0,0)"/>
<path d="" fill="#000000" transform="translate(0,0)"/>
<path d="" fill="#000000" transform="translate(0,0)"/>
<path d="" fill="#000000" transform="translate(0,0)"/>
<path d="" fill="#000000" transform="translate(0,0)"/>
<path d="" fill="#808080" transform="translate(0,0)"/>
<path d="" fill="#808080" transform="translate(0,0)"/>
<path d="" fill="#808080" transform="translate(0,0)"/>
<path d="" fill="#000000" transform="translate(0,0)"/>
<path d="" fill="#000000" transform="translate(0,0)"/>
<path d="" fill="#000000" transform="translate(0,0)"/>
<path d="" fill="#808080" transform="translate(0,0)"/>
<path d="" fill="#808080" transform="translate(0,0)"/>
<path d="" fill="#808080" transform="translate(0,0)"/>
<path d="" fill="#000000" transform="translate(0,0)"/>
<path d="" fill="#000000" transform="translate(0,0)"/>
<path d="" fill="#000000" transform="translate(0,0)"/>
<path d="" fill="#000000" transform="translate(0,0)"/>
<path d="" fill="#000000" transform="translate(0,0)"/>
<path d="" fill="#000000" transform="translate(0,0)"/>
<path d="" fill="#808080" transform="translate(0,0)"/>
<path d="" fill="#000000" transform="translate(0,0)"/>
<path d="" fill="#000000" transform="translate(0,0)"/>
<path d="" fill="#555555" transform="translate(0,0)"/>
<path d="" fill="#000000" transform="translate(0,0)"/>
<path d="" fill="#000000" transform="translate(0,0)"/>
<path d="" fill="#808080" transform="translate(0,0)"/>
<path d="" fill="#808080" transform="translate(0,0)"/>
<path d="" fill="#808080" transform="translate(0,0)"/>
<path d="" fill="#000000" transform="translate(0,0)"/>
<path d="" fill="#555555" transform="translate(0,0)"/>
<path d="" fill="#000000" transform="translate(0,0)"/>
<path d="" fill="#000000" transform="translate(0,0)"/>
<path d="" fill="#000000" transform="translate(0,0)"/>
<path d="" fill="#808080" transform="translate(0,0)"/>
<path d="" fill="#808080" transform="translate(0,0)"/>
<path d="" fill="#808080" transform="translate(0,0)"/>
<path d="" fill="#000000" transform="translate(0,0)"/>
<path d="" fill="#000000" transform="translate(0,0)"/>
<path d="" fill="#000000" transform="translate(0,0)"/>
<path d="" fill="#808080" transform="translate(0,0)"/>
<path d="" fill="#000000" transform="translate(0,0)"/>
<path d="" fill="#000000" transform="translate(0,0)"/>
<path d="" fill="#000000" transform="translate(0,0)"/>
<path d="" fill="#000000" transform="translate(0,0)"/>
<path d="" fill="#000000" transform="translate(0,0)"/>
<path d="" fill="#000000" transform="translate(0,0)"/>
<path d="" fill="#000000" transform="translate(0,0)"/>
<path d="" fill="#000000" transform="translate(0,0)"/>
<path d="" fill="#000000" transform="translate(0,0)"/>
<path d="" fill="#808080" transform="translate(0,0)"/>
<path d="" fill="#000000" transform="translate(0,0)"/>
<path d="" fill="#000000" transform="translate(0,0)"/>
<path d="" fill="#000000" transform="translate(0,0)"/>
<path d="" fill="#808080" transform="translate(0,0)"/>
</svg>
